<svg xmlns="http://www.w3.org/2000/svg" width="25" height="25" viewBox="0 0 21 20" fill="none">
    <path d="M14.435 0.589844C17.6449 0.589844 20.2471 3.251 20.2471 6.53359V13.6461C20.2471 16.9287 17.6449 19.5898 14.435 19.5898H6.05911C2.84926 19.5898 0.24707 16.9287 0.24707 13.6461V6.53359C0.24707 3.251 2.84926 0.589844 6.05911 0.589844H14.435ZM14.435 2.07636H6.05911C3.65205 2.07636 1.70065 4.07198 1.70065 6.53359V13.6461C1.70065 16.1077 3.65205 18.1033 6.05911 18.1033H14.435C16.8421 18.1033 18.7935 16.1077 18.7935 13.6461L18.7931 13.3688L15.597 13.3697C13.7554 13.3685 12.2629 11.8429 12.2618 9.95933C12.2618 8.13898 13.6572 6.65229 15.4144 6.55415L15.5974 6.549L18.7931 6.54884L18.7935 6.53359C18.7935 4.14438 16.9552 2.19415 14.6462 2.0815L14.435 2.07636ZM18.7931 8.03484L15.5979 8.03551C14.558 8.03617 13.7154 8.89727 13.7154 9.95888C13.716 10.971 14.48 11.8001 15.4504 11.8773L15.5974 11.8832L18.7931 11.8828V8.03484ZM16.0412 9.15502C16.4426 9.15502 16.768 9.48779 16.768 9.89828C16.768 10.2746 16.4946 10.5855 16.1399 10.6348L16.0412 10.6415H15.7392C15.3378 10.6415 15.0124 10.3088 15.0124 9.89828C15.0124 9.522 15.2858 9.21102 15.6406 9.16181L15.7392 9.15502H16.0412ZM10.601 5.08721C11.0023 5.08721 11.3277 5.41998 11.3277 5.83047C11.3277 6.20675 11.0543 6.51772 10.6996 6.56694L10.601 6.57372H5.3691C4.9677 6.57372 4.64231 6.24096 4.64231 5.83047C4.64231 5.45418 4.91573 5.14321 5.27047 5.09399L5.3691 5.08721H10.601Z" fill="#FFF"/>
</svg>