<svg xmlns="http://www.w3.org/2000/svg" width="148" height="160" viewBox="0 0 148 160" fill="none">
    <path d="M148 0L69.5 30L41 160H148V0Z" fill="#FF1B6B" fill-opacity="0.2"/>
    <path d="M27.9872 34.0004C27.9872 34.0004 28.5805 46.5029 21.6873 53.5554C14.7942 60.6078 3.01376 59.986 3.01376 59.986C3.01376 59.986 2.40436 47.9259 9.29748 40.8693C16.1866 33.8168 27.9872 34.0004 27.9872 34.0004Z" fill="#FF1B6B"/>
    <path d="M3.01279 9.00043C3.01279 9.00043 2.41962 21.0219 9.31163 27.8031C16.2036 34.5882 27.9862 33.9863 27.9862 33.9863C27.9862 33.9863 28.5955 22.3902 21.7035 15.605C14.8115 8.82388 3.01279 9.00043 3.01279 9.00043Z" fill="#FF1B6B"/>
    <path d="M28.0133 34.0004C28.0133 34.0004 27.3964 46.5028 34.5641 53.5552C41.7318 60.6118 53.9857 59.9858 53.9857 59.9858C53.9857 59.9858 54.6194 47.9258 47.4517 40.8692C40.284 33.8168 28.0133 34.0004 28.0133 34.0004Z" fill="#FF1B6B"/>
    <path d="M53.9867 9.00043C53.9867 9.00043 54.6036 21.0219 47.4359 27.8031C40.2682 34.5882 28.0143 33.9863 28.0143 33.9863C28.0143 33.9863 27.3806 22.3902 34.5483 15.605C41.716 8.82388 53.9867 9.00043 53.9867 9.00043Z" fill="#FF1B6B"/>
    <path d="M0 160H69C69 121.892 38.1076 91 0 91V160Z" fill="#FF1B6B" fill-opacity="0.2"/>
    <path d="M26 63.0024L26.0002 66.0782C26.0015 90.7433 45.9975 110.737 70.6626 110.736L70.66 63L26 63.0024Z" fill="#FF1B6B"/>
    <path d="M38.2516 84H37.9336V153.196H38.2516V84Z" fill="#FF1B6B"/>
    <path d="M48.4535 84H48.1355V153.196H48.4535V84Z" fill="#FF1B6B"/>
    <path d="M58.6556 84H58.3376V153.196H58.6556V84Z" fill="#FF1B6B"/>
    <path d="M68.8576 84H68.5396V153.196H68.8576V84Z" fill="#FF1B6B"/>
    <path d="M79.0548 84H78.7368V153.196H79.0548V84Z" fill="#FF1B6B"/>
    <path d="M89.2567 84H88.9387V153.196H89.2567V84Z" fill="#FF1B6B"/>
    <path d="M98.1959 92.9384H29V93.2564H98.1959V92.9384Z" fill="#FF1B6B"/>
    <path d="M98.1959 103.14H29V103.458H98.1959V103.14Z" fill="#FF1B6B"/>
    <path d="M98.1959 113.337H29V113.655H98.1959V113.337Z" fill="#FF1B6B"/>
    <path d="M98.1959 123.54H29V123.858H98.1959V123.54Z" fill="#FF1B6B"/>
    <path d="M98.1959 133.741H29V134.059H98.1959V133.741Z" fill="#FF1B6B"/>
    <path d="M98.1959 143.944H29V144.262H98.1959V143.944Z" fill="#FF1B6B"/>
    <path d="M49.831 123.14L45.9109 116.979L42 123.14H49.831Z" fill="#FF1B6B"/>
    <path d="M49.831 155.003L45.9109 148.842L42 155.003H49.831Z" fill="#FF1B6B"/>
    <path d="M49.831 48.1693L45.9109 42L42 48.1693H49.831Z" fill="#FF1B6B"/>
    <path d="M49.831 80.036L45.9109 73.8667L42 80.036H49.831Z" fill="#FF1B6B"/>
    <path d="M49.831 93.5322L45.9109 87.372L42 93.5322H49.831Z" fill="#FF1B6B"/>
    <circle cx="100" cy="35" r="35" fill="#FF1B6B"/>
    <path d="M110.251 158.035L123.978 144.316L137.698 158.035H141.365L123.978 140.648L106.59 158.035H110.251Z" fill="#FF1B6B"/>
    <path d="M100 142.652V146.32L123.977 122.342L147.955 146.32V142.652L123.977 118.682L100 142.652Z" fill="#FF1B6B"/>
    <path d="M100 153.642V157.303L123.977 133.326L147.955 157.303V153.642L123.977 129.665L100 153.642Z" fill="#FF1B6B"/>
    <path d="M100.76 65L100 65.7664V69.4273L104.427 65H100.76Z" fill="#FF1B6B"/>
    <path d="M111.749 65L100 76.7491V80.41L115.41 65H111.749Z" fill="#FF1B6B"/>
    <path d="M121.233 158.036L123.977 155.299L126.714 158.036H130.382L123.977 151.631L117.572 158.036H121.233Z" fill="#FF1B6B"/>
    <path d="M122.732 65L100 87.7319V91.3996L123.977 67.4224L147.955 91.3996V87.7319L125.223 65H122.732Z" fill="#FF1B6B"/>
    <path d="M132.538 65L147.955 80.41V76.7491L136.206 65H132.538Z" fill="#FF1B6B"/>
    <path d="M143.527 65L147.954 69.4273V65.7664L147.188 65H143.527Z" fill="#FF1B6B"/>
    <path d="M100 120.687V124.348L123.977 100.377L147.955 124.348V120.687L123.977 96.7096L100 120.687Z" fill="#FF1B6B"/>
    <path d="M100 131.67V135.338L123.977 111.361L147.955 135.338V131.67L123.977 107.693L100 131.67Z" fill="#FF1B6B"/>
    <path d="M100 98.7133V102.381L123.977 78.4038L147.955 102.381V98.7133L123.977 74.7429L100 98.7133Z" fill="#FF1B6B"/>
    <path d="M100 109.704V113.364L123.977 89.3872L147.955 113.364V109.704L123.977 85.7263L100 109.704Z" fill="#FF1B6B"/>
</svg>