<svg xmlns="http://www.w3.org/2000/svg" width="153" height="153" viewBox="0 0 153 153" fill="none">
    <path d="M51 152V0C22.8335 0 0 22.8335 0 51V152H51Z" fill="#EBE9FF"/>
    <path d="M153 152V0C96.667 0 51 45.667 51 102V152H153Z" fill="#D7D3FF"/>
    <path d="M153 121H51V152H153V121Z" fill="white"/>
    <path d="M140.097 152.46L144.758 147.802L149.416 152.46H150.662L144.758 146.556L138.854 152.46H140.097Z" fill="#4A3AFF"/>
    <path d="M136.617 147.237V148.482L144.758 140.341L152.899 148.482V147.237L144.758 139.098L136.617 147.237Z" fill="#4A3AFF"/>
    <path d="M136.617 150.968V152.211L144.758 144.07L152.899 152.211V150.968L144.758 142.827L136.617 150.968Z" fill="#4A3AFF"/>
    <path d="M136.875 120.872L136.617 121.132V122.375L138.12 120.872H136.875Z" fill="#4A3AFF"/>
    <path d="M140.606 120.872L136.617 124.861V126.104L141.849 120.872H140.606Z" fill="#4A3AFF"/>
    <path d="M143.826 152.46L144.758 151.531L145.687 152.46H146.933L144.758 150.286L142.583 152.46H143.826Z" fill="#4A3AFF"/>
    <path d="M144.335 120.872L136.617 128.59V129.835L144.758 121.694L152.899 129.835V128.59L145.181 120.872H144.335Z" fill="#4A3AFF"/>
    <path d="M147.665 120.872L152.899 126.104V124.861L148.91 120.872H147.665Z" fill="#4A3AFF"/>
    <path d="M151.396 120.872L152.899 122.375V121.132L152.639 120.872H151.396Z" fill="#4A3AFF"/>
    <path d="M136.617 139.779V141.022L144.758 132.883L152.899 141.022V139.779L144.758 131.638L136.617 139.779Z" fill="#4A3AFF"/>
    <path d="M136.617 143.508V144.753L144.758 136.612L152.899 144.753V143.508L144.758 135.367L136.617 143.508Z" fill="#4A3AFF"/>
    <path d="M136.617 132.318V133.564L144.758 125.423L152.899 133.564V132.318L144.758 124.18L136.617 132.318Z" fill="#4A3AFF"/>
    <path d="M136.617 136.05V137.293L144.758 129.152L152.899 137.293V136.05L144.758 127.909L136.617 136.05Z" fill="#4A3AFF"/>
    <path d="M51.0799 139.253V152.46H37.8728V139.253H51.0799ZM50.4482 151.828V139.884H38.5045V151.828H50.4482Z" fill="#4A3AFF"/>
    <path d="M38.5047 126.677V139.885H25.2976V126.677H38.5047ZM37.873 139.253V127.309H25.9293V139.253H37.873Z" fill="#4A3AFF"/>
    <path d="M38.5047 114.109V127.308H25.2976V114.109H38.5047ZM37.873 126.676V114.741H25.9293V126.684H37.873V126.676Z" fill="#4A3AFF"/>
    <path d="M25.9292 126.677V139.885H12.7305V126.677H25.9292ZM25.2974 139.253V127.309H13.3622V139.253H25.2974Z" fill="#4A3AFF"/>
    <path d="M51.0799 126.677V139.885H37.8728V126.677H51.0799ZM50.4482 139.253V127.309H38.5045V139.253H50.4482Z" fill="#4A3AFF"/>
    <path d="M51.0799 114.109V127.308H37.8728V114.109H51.0799ZM50.4482 126.676V114.741H38.5045V126.684H50.4482V126.676Z" fill="#4A3AFF"/>
    <path d="M51.0799 101.534V114.741H37.8728V101.534H51.0799ZM50.4482 114.109V102.165H38.5045V114.109H50.4482Z" fill="#4A3AFF"/>
    <path d="M38.5047 139.253V152.46H25.2976V139.253H38.5047ZM37.873 151.828V139.884H25.9293V151.828H37.873Z" fill="#4A3AFF"/>
    <path d="M25.9292 139.253V152.46H12.7305V139.253H25.9292ZM25.2974 151.828V139.884H13.3622V151.828H25.2974Z" fill="#4A3AFF"/>
    <path d="M13.3626 139.253V152.46H0.155518V139.253H13.3626ZM12.7309 151.828V139.884H0.787235V151.828H12.7309Z" fill="#4A3AFF"/>
    <path d="M152.991 107.635V120.842H139.783V107.635H152.991ZM152.359 120.211V108.267H140.415V120.211H152.359Z" fill="#4A3AFF"/>
    <path d="M140.415 95.06V108.267H127.208V95.06H140.415ZM139.784 107.635V95.6917H127.84V107.635H139.784Z" fill="#4A3AFF"/>
    <path d="M140.415 82.4914V95.6901H127.208V82.4914H140.415ZM139.784 95.0584V83.1231H127.84V95.0668H139.784V95.0584Z" fill="#4A3AFF"/>
    <path d="M127.84 95.06V108.267H114.641V95.06H127.84ZM127.208 107.635V95.6917H115.273V107.635H127.208Z" fill="#4A3AFF"/>
    <path d="M152.991 95.06V108.267H139.783V95.06H152.991ZM152.359 107.635V95.6917H140.415V107.635H152.359Z" fill="#4A3AFF"/>
    <path d="M152.991 82.4914V95.6901H139.783V82.4914H152.991ZM152.359 95.0584V83.1231H140.415V95.0668H152.359V95.0584Z" fill="#4A3AFF"/>
    <path d="M152.991 69.9162V83.1233H139.783V69.9162H152.991ZM152.359 82.4916V70.5479H140.415V82.4916H152.359Z" fill="#4A3AFF"/>
    <path d="M140.415 107.635V120.842H127.208V107.635H140.415ZM139.784 120.211V108.267H127.84V120.211H139.784Z" fill="#4A3AFF"/>
    <path d="M127.84 107.635V120.842H114.641V107.635H127.84ZM127.208 120.211V108.267H115.273V120.211H127.208Z" fill="#4A3AFF"/>
    <path d="M115.273 107.635V120.842H102.066V107.635H115.273ZM114.642 120.211V108.267H102.698V120.211H114.642Z" fill="#4A3AFF"/>
    <path d="M67.21 120.804C58.488 120.804 51.3857 127.907 51.3857 136.629C51.3857 145.357 58.488 152.459 67.21 152.459C75.932 152.459 83.0342 145.357 83.0342 136.629C83.0401 127.907 75.9379 120.804 67.21 120.804ZM67.21 151.26C59.1466 151.26 52.5843 144.698 52.5843 136.629C52.5843 128.565 59.1466 122.003 67.21 122.003C75.2734 122.003 81.8357 128.565 81.8357 136.629C81.8416 144.698 75.2793 151.26 67.21 151.26Z" fill="#4A3AFF"/>
    <path d="M67.2104 129.396C63.2172 129.396 59.9717 132.642 59.9717 136.635C59.9717 140.628 63.2172 143.873 67.2104 143.873C71.2035 143.873 74.449 140.628 74.449 136.635C74.449 132.642 71.2035 129.396 67.2104 129.396ZM67.2104 142.669C63.8818 142.669 61.1702 139.957 61.1702 136.629C61.1702 133.3 63.8818 130.595 67.2104 130.595C70.539 130.595 73.2505 133.306 73.2505 136.635C73.2505 139.963 70.5449 142.669 67.2104 142.669Z" fill="#4A3AFF"/>
    <path d="M112 121V152C120.862 151.847 128 144.969 128 136.501C128 128.031 120.864 121.153 112 121Z" fill="#EBE9FF"/>
    <path d="M121 121V152C129.863 151.847 137 144.969 137 136.501C137 128.031 129.863 121.153 121 121Z" fill="#C3BDFF"/>
    <path d="M28.0771 56.1837L41.1077 65.3698L54.1383 56.1837L67.1734 65.3698L80.204 56.1837L93.2391 65.3698L106.27 56.1837L119.305 65.3698L132.34 56.1837" stroke="#4A3AFF" stroke-width="25" stroke-miterlimit="10" stroke-linecap="round" stroke-linejoin="round"/>
    <path d="M28.0771 47.916L41.1077 57.1022L54.1383 47.916L67.1734 57.1022L80.204 47.916L93.2391 57.1022L106.27 47.916L119.305 57.1022L132.34 47.916" stroke="#867CFF" stroke-width="25" stroke-miterlimit="10" stroke-linecap="round" stroke-linejoin="round"/>
    <path d="M96 121V145" stroke="#4A3AFF" stroke-width="25"/>
    <path d="M91 128V152" stroke="#4A3AFF" stroke-width="25"/>
    <path d="M102 128V152" stroke="#4A3AFF" stroke-width="25"/>
</svg>