<svg xmlns="http://www.w3.org/2000/svg" width="184" height="163" viewBox="0 0 184 163" fill="none">
    <rect x="0.5" y="30.5" width="183" height="39" fill="#FFF0E9" stroke="#FD4302"/>
    <path d="M158.5 78.5V66.5H170.5V78.5H158.5Z" fill="#FD4302" stroke="#FD4302"/>
    <path d="M31.5 96.5V84.5H45.5V96.5H31.5Z" fill="#FD4302" stroke="#FD4302"/>
    <path d="M171.5 93.5V79.5H183.5V93.5H171.5Z" fill="#FD4302" stroke="#FD4302"/>
    <path d="M39.5 55.5V43.5H51.5V55.5H39.5Z" fill="#FD4302" stroke="#FD4302"/>
    <path d="M44.5 111.5V97.5H58.5V111.5H44.5Z" fill="#FD4302" stroke="#FD4302"/>
    <path d="M105.002 88.5C126.509 88.5 144.433 103.983 148.398 124.5H61.6017C65.5666 103.983 83.4955 88.5 105.002 88.5Z" fill="#FFF0E9" stroke="#FD4302"/>
    <path d="M0.5 106.5V78.5H30.5V106.5H0.5Z" fill="#FFF0E9" stroke="#FD4302"/>
    <path d="M161.135 29.3702H160.635V29.8702V52.3123C159.607 52.4356 158.558 52.5 157.5 52.5C143.142 52.5 131.5 40.8578 131.5 26.5C131.5 12.1422 143.142 0.500001 157.5 0.500001L157.5 0.500001C171.858 0.49581 183.5 12.1421 183.5 26.4957C183.5 27.4684 183.447 28.4255 183.345 29.3702H161.135Z" fill="#FD4302" stroke="#FD4302"/>
    <path d="M0.5 78.5H23.4176C21.6392 89.2031 12.3446 97.7256 0.5 99.4284V78.5Z" fill="#FD4302" stroke="#FD4302"/>
    <path d="M121 57L158 93" stroke="#FD4302" stroke-width="2.233" stroke-miterlimit="10"/>
    <path d="M121 50L158 85" stroke="#FD4302" stroke-width="2.233" stroke-miterlimit="10"/>
    <path d="M121 43L158 78" stroke="#FD4302" stroke-width="2.233" stroke-miterlimit="10"/>
    <path d="M121 35L158 70" stroke="#FD4302" stroke-width="2.233" stroke-miterlimit="10"/>
    <path d="M97.5874 50.7645L98 51.3672L98.4126 50.7645L103.944 42.6839L103.673 52.4798L103.653 53.2095L104.341 52.9647L113.56 49.6823L107.588 57.45L107.144 58.0281L107.843 58.2343L117.231 61.0037L107.844 63.7655L107.144 63.9715L107.588 64.55L113.56 72.3177L104.341 69.0353L103.653 68.7905L103.673 69.5202L103.944 79.3161L98.4126 71.2355L98 70.6328L97.5874 71.2355L92.0561 79.3161L92.3269 69.5202L92.347 68.7905L91.6594 69.0353L82.4396 72.3177L88.4115 64.55L88.8563 63.9715L88.1563 63.7655L78.7693 61.0037L88.1566 58.2343L88.8559 58.0281L88.4115 57.45L82.4396 49.6823L91.6594 52.9647L92.347 53.2095L92.3269 52.4798L92.0561 42.6839L97.5874 50.7645Z" fill="#FD4302" stroke="#FD4302"/>
    <rect x="0.5" y="125.5" width="114" height="37" fill="#FFF0E9" stroke="#FD4302"/>
    <path d="M20.5 149.5V137.5H88.5V149.5H20.5Z" fill="white" stroke="#FD4302"/>
    <path d="M37.5 136.5V123.5H88.5V136.5H37.5Z" fill="#FD4302" stroke="#FD4302"/>
    <path d="M50.5 122.5V112.5H88.5V122.5H50.5Z" fill="white" stroke="#FD4302"/>
    <path d="M0.5 162.5V150.5H88.5V162.5H0.5Z" fill="#FD4302" stroke="#FD4302"/>
    <path d="M164.046 102.5H115.5V93.5H172.815L164.046 102.5Z" fill="#FD4302" stroke="#FD4302"/>
    <path d="M143.207 122.5H115.5V113.5H151.829L143.207 122.5Z" fill="#FD4302" stroke="#FD4302"/>
    <path d="M122.706 143.5H115.5V134.5H131.785L122.706 143.5Z" fill="#FD4302" stroke="#FD4302"/>
    <path d="M114.5 134.5V125.5H183.5V134.5H114.5Z" fill="#FFF0E9" stroke="#FD4302"/>
    <path d="M114.5 155.5V145.5H183.5V155.5H114.5Z" fill="#FFF0E9" stroke="#FD4302"/>
</svg>