<svg xmlns="http://www.w3.org/2000/svg" width="30" height="25" viewBox="0 0 40 35" fill="none">
    <path opacity="0.984" fill-rule="evenodd" clip-rule="evenodd" d="M8.32007 4.79724C15.2733 4.78618 22.2264 4.79724 29.1794 4.83039C31.0419 5.20631 32.1356 6.18984 32.4607 7.78098C32.2019 7.74484 31.9415 7.71169 31.6794 7.68152C23.9711 7.6373 16.2628 7.6373 8.55444 7.68152C7.09387 7.75426 5.90898 8.27363 4.99976 9.2397C4.65232 6.95289 5.75909 5.47207 8.32007 4.79724Z" fill="white"/>
    <path opacity="0.99" fill-rule="evenodd" clip-rule="evenodd" d="M8.32031 9.04071C16.2138 9.00829 24.1044 9.04144 31.9922 9.14017C33.5721 9.59688 34.5487 10.5141 34.9219 11.8918C34.9609 13.3062 34.974 14.7207 34.9609 16.1354C32.8774 16.1243 30.7941 16.1354 28.7109 16.1685C26.945 16.496 25.9815 17.4242 25.8203 18.9534C26.0301 20.6343 27.1238 21.5626 29.1016 21.7382C31.0545 21.7714 33.0077 21.7824 34.9609 21.7714C34.974 23.186 34.9609 24.6005 34.9219 26.0149C34.4769 27.5861 33.318 28.5254 31.4453 28.8329C23.7891 28.8771 16.1328 28.8771 8.47656 28.8329C6.60457 28.526 5.44572 27.5867 5 26.0149C4.94792 21.3072 4.94792 16.5995 5 11.8918C5.44387 10.3769 6.55063 9.42654 8.32031 9.04071ZM15.7422 12.6212C18.9534 12.4643 21.4144 13.5251 23.125 15.8039C24.6211 18.3537 24.3606 20.7628 22.3438 23.0312C19.862 25.2401 16.9323 25.8037 13.5547 24.7219C10.4402 23.3599 8.99492 21.1829 9.21875 18.1909C9.8968 15.0626 12.0713 13.2061 15.7422 12.6212Z" fill="white"/>
    <path opacity="0.949" fill-rule="evenodd" clip-rule="evenodd" d="M16.133 13.9473C19.0384 13.9367 21.0567 15.0639 22.1877 17.3289C23.0091 20.1221 21.9284 22.1886 18.9455 23.5285C15.9317 24.4071 13.4969 23.7551 11.6408 21.5725C10.1763 19.1997 10.5539 17.0668 12.7736 15.174C13.7586 14.4869 14.8784 14.078 16.133 13.9473ZM16.3673 15.2734C14.9914 15.4098 13.9107 15.9624 13.1252 16.9311C12.0903 18.6617 12.3898 20.1978 14.0236 21.5393C15.8398 22.5711 17.6367 22.5489 19.4142 21.473C19.8325 20.8895 19.6502 20.5026 18.8673 20.3127C18.5064 20.4083 18.1939 20.5741 17.9298 20.81C16.3081 21.401 15.0841 21.0363 14.258 19.7159C16.2665 19.6804 18.2717 19.6251 20.2736 19.5502C20.4131 19.4981 20.5303 19.4208 20.6252 19.3181C20.7428 18.9702 20.7688 18.6166 20.7033 18.2572C20.1594 16.3264 18.7141 15.3318 16.3673 15.2734Z" fill="white"/>
    <path opacity="0.932" fill-rule="evenodd" clip-rule="evenodd" d="M16.0547 16.7985C17.4833 16.6416 18.4729 17.1168 19.0234 18.2241C17.4342 18.2793 15.8457 18.2682 14.2578 18.1909C14.5894 17.467 15.1884 17.0029 16.0547 16.7985Z" fill="white"/>
    <path opacity="0.972" fill-rule="evenodd" clip-rule="evenodd" d="M28.5549 17.5278C30.6903 17.5278 32.8258 17.5278 34.9612 17.5278C34.9612 18.4782 34.9612 19.4286 34.9612 20.379C32.8516 20.39 30.7423 20.379 28.6331 20.3458C27.5907 20.0167 27.2131 19.3868 27.5002 18.4561C27.6578 17.9799 28.0094 17.6705 28.5549 17.5278ZM28.9456 18.2572C29.7283 18.2699 30.0277 18.6014 29.844 19.2518C29.5863 19.5647 29.2348 19.6642 28.7893 19.5501C28.3464 19.3173 28.2292 18.9968 28.4377 18.5887C28.5788 18.4345 28.7481 18.324 28.9456 18.2572Z" fill="white"/>
</svg>